<?xml version="1.0" encoding="UTF-8"?>
<svg id="Layer_2" data-name="Layer 2" xmlns="http://www.w3.org/2000/svg" viewBox="0 0 1920 1080">
  <defs>
    <style>
      .cls-1 {
        fill: #fff;
      }
    </style>
  </defs>
  <g id="Layer_1-2" data-name="Layer 1">
    <g>
      <path class="cls-1" d="M0,0c640,0,1280,0,1920,0,0,360,0,720,0,1080-640,0-1280,0-1920,0C0,720,0,360,0,0ZM199.26,451.54c-.12,1.16-.24,1.82-.24,2.48-.01,62.64-.04,125.28,.08,187.92,0,2.86,.88,6.02,2.28,8.53,5.43,9.72,14.05,14.36,25.1,14.36,82.13,.02,164.26-.07,246.39,.09,14.81,.03,28.44-12.08,28.31-28.45-.48-59.8-.19-119.61-.19-179.42v-5.51H199.26Zm-.21-18.23H500.61c.18-.69,.33-1.01,.33-1.34,.03-13.49-.66-27.03,.24-40.46,1.01-15.2-11.69-28.88-28.58-28.76-81.94,.55-163.89,.25-245.83,.25-2,0-4.01-.05-5.99,.13-10.47,.92-21.38,10.72-21.62,20.39-.4,16.47-.11,32.95-.11,49.79Zm918.4,26.69v115c-3.21,0-6.03,.05-8.85-.01-3.31-.08-5.06,1.61-5.13,4.77-.07,3.34,1.59,5.28,5.17,5.27,9.66-.03,19.33-.03,28.99,0,3.5,0,5.32-1.71,5.28-5.16-.04-3.55-2.09-4.96-5.52-4.88-4.08,.09-8.17,.02-12.42,.02,0-14.11-.02-27.43,.04-40.75,0-1.09,.24-2.42,.88-3.24,4.42-5.59,8.97-11.08,14.27-17.58,4.88,4.1,10.29,7.23,13.69,11.85,4.56,6.2,8.36,13.25,11.05,20.47,4.75,12.75,8.42,25.9,12.66,39.25,4.23,0,8.71,0,13.19,0,3.35,0,4.92-1.93,4.94-5.01,.02-3.09-1.53-5.02-4.9-5-2.82,.02-5.64,0-8.7,0-2.45-7.97-4.71-15.79-7.25-23.51-5.7-17.36-11.75-34.52-29.71-44.14,12.79-15.62,25.2-30.83,37.72-45.95,.7-.84,2.29-1.28,3.48-1.32,3.63-.13,5.1-2.05,4.98-5.43-.12-3.29-1.96-4.69-5.2-4.66-6.66,.06-13.33,.04-19.99,0-3.24-.02-5.03,1.46-5.13,4.74-.1,3.47,1.55,5.3,5.1,5.28,2.09-.01,4.17,0,7.39,0-16.37,19.9-31.98,38.87-48.26,58.66v-58.66c4.38,0,8.51-.01,12.64,0,3.27,.01,4.99-1.65,5.04-4.86,.05-3.12-1.36-5.12-4.74-5.13-10-.02-19.99-.02-29.99,0-3.41,0-4.77,2.1-4.73,5.15,.04,2.84,1.44,4.77,4.56,4.83,2.99,.05,5.98,.01,9.43,.01Zm-284.88,115v-135c-5.9,0-11.22,0-16.54,0-3.02,0-4.8,1.5-4.84,4.48-.05,3.21,1.3,5.5,4.97,5.52,2.94,.02,5.88,0,8.73,0v53.39c-2.32-3.2-3.97-5.69-5.83-8-14.59-18.17-36.22-17.85-50.27,.71-16.09,21.26-16.1,57.64-.03,78.84,14.13,18.65,36.27,18.8,50.64,.33,1.77-2.27,3.37-4.67,5.04-7.01,.33,.09,.66,.19,.99,.28v17.46c5.93,0,11.24,.06,16.56-.02,3.98-.06,4.98-2.79,4.95-6.1-.02-3.2-1.7-4.91-4.99-4.88-2.81,.02-5.62,0-9.38,0Zm106.53-36.99c.37-15.32-2.51-29.2-11.55-41.32-14.59-19.56-40.28-19.84-55.47-.72-14.99,18.88-16.52,49.73-3.55,71.56,14.83,24.96,45.42,29.06,66.45,8.81,1.83-1.76,3.42-4.18,4.1-6.58,.42-1.49-1.08-3.52-1.72-5.31-1.55,.61-3.5,.82-4.6,1.89-5.77,5.63-12.64,9.18-20.31,11.22-11.55,3.07-22.2,1.43-31.12-7-9.16-8.66-12.88-19.81-14.24-32.55h71.99Zm620.01,0c.28-15.52-2.59-29.45-11.74-41.55-14.57-19.27-40.07-19.53-55.17-.65-11.25,14.05-13.82,30.32-11.76,47.59,1.6,13.43,6.8,25.35,16.52,34.99,15.79,15.65,46.69,13.36,60.3-4.41,.79-1.03,1.83-2.33,1.77-3.46-.1-2-.96-3.96-1.5-5.93-1.67,.63-3.45,1.09-4.99,1.96-1.27,.72-2.17,2.08-3.4,2.92-12.75,8.76-26.45,13.62-41.12,5.77-14.36-7.68-18.97-21.59-20.97-37.23h72.07Zm101,.04c.26-15.49-2.57-29.3-11.52-41.31-14.59-19.58-40.28-19.91-55.48-.81-15.22,19.13-16.57,50.6-3.11,72.42,15.01,24.33,45.92,27.97,66.3,7.71,1.69-1.68,3.22-3.96,3.78-6.21,.38-1.55-1.05-3.55-1.66-5.34-1.56,.58-3.51,.75-4.6,1.81-5.76,5.63-12.62,9.2-20.29,11.24-12.79,3.39-24.13,.96-33.23-9.07-7.68-8.46-10.98-18.76-12.18-30.43h72.01Zm-382.61,36.96c0-7.29,.03-13.77,0-20.25-.09-15.65,.24-31.31-.46-46.93-.59-13.2-10.2-23.58-22.78-25.4-12.11-1.76-22.88,3.08-33.23,8.48-1.41,.74-2.07,4.76-1.57,6.91,.72,3.1,3.46,2,5.77,1.18,6.41-2.27,12.73-5.02,19.33-6.46,12.2-2.66,23.52,3.84,25.13,14.51,.93,6.14,.17,12.54,.17,18.42-8.53-.82-16.93-2.37-25.31-2.28-21,.23-35.6,16.53-34.41,37.55,1.16,20.52,16.43,32.17,35.78,27.17,7.78-2.01,14.16-6.45,19.84-12.01,1.23-1.2,2.5-2.36,4.57-4.3v13.4c5.92,0,11.37,.05,16.81-.02,3.41-.04,5.12-2.43,4.44-5.24-.45-1.83-2.72-4.01-4.59-4.53-2.75-.77-5.87-.2-9.47-.2Zm39.75-80c3.67,0,6.48,0,9.3,0,3.35,0,4.89-1.89,4.89-5.01,0-3.12-1.49-5.02-4.87-5-6.33,.02-12.66,.04-18.99,0-3.09-.02-5.12,1.59-4.62,4.46,.35,1.99,2.24,3.8,3.7,5.47,1.14,1.31,3.38,2.02,3.91,3.46,10.32,27.91,20.49,55.89,30.6,83.88,.53,1.46,.85,3.36,.37,4.75-3.8,10.98-7.82,21.88-11.85,32.99-7.36,0-14.51,.03-21.66-.01-3.54-.02-5.22,1.67-5.15,5.19,.06,3.31,1.79,4.82,5.03,4.81,13.33-.01,26.65-.02,39.98,0,3.52,0,5.25-1.62,5.23-5.14-.02-3.65-2.06-4.96-5.46-4.88-3.14,.08-6.28,.02-9.54,.02,0-.85-.14-1.39,.02-1.82,14.45-40.21,28.9-80.43,43.49-120.59,.41-1.14,2.17-2.32,3.46-2.52,3.55-.56,4.23-2.82,4.09-5.74-.15-3.1-2.02-4.34-4.97-4.33-6.16,.02-12.33,.06-18.49-.02-3.59-.04-5.29,1.83-5.25,5.18,.04,3.13,1.75,4.9,5.07,4.86,2.77-.04,5.55,0,9.13,0-9.5,26.43-18.73,52.13-28.5,79.32-9.87-27.07-19.23-52.75-28.91-79.33Zm-689.41-32.16c-2.62-2.68-4.46-4.81-6.55-6.65-14.64-12.92-34.23-12.66-47.38,1.7-5.46,5.96-9.42,13.64-12.81,21.11-6.67,14.71-4.96,30.62-5.45,46.25-.61,19.4,6.34,35.98,18.29,50.48,8.56,10.38,20.11,15.55,33.8,12.38,14.8-3.43,23.87-13.85,29.86-27.16,.6-1.33-1.15-3.72-1.81-5.61-1.6,.84-3.61,1.31-4.71,2.58-3.28,3.74-5.87,8.13-9.33,11.68-12.21,12.49-28.78,12.6-41.29,.47-7.85-7.61-13.72-16.75-15.29-27.49-1.69-11.62-1.82-23.49-2.16-35.27-.39-13.4,3.93-25.65,11.11-36.73,6.5-10.04,16.13-14.86,28.2-13.16,12.11,1.7,22.72,11.59,25.2,22.77,.46,2.1,.27,4.39,.98,6.38,.48,1.33,2.04,2.27,3.12,3.39,1.12-1.24,3.19-2.45,3.22-3.72,.26-10.82,.26-21.65,0-32.47-.03-1.26-2.12-2.47-3.25-3.7-1.12,1.27-2.86,2.39-3.21,3.85-.61,2.53-.37,5.27-.53,8.95Zm107.67,73.41c.1-15.84-3.93-30.27-14.64-42.37-14.1-15.92-35.59-16.01-49.84-.24-19.9,22.02-19.91,61.61-.02,83.67,14.23,15.78,35.73,15.72,49.84-.19,10.33-11.65,14.57-25.53,14.66-40.87Zm688.52,38.74c-8.71,0-17.16,.05-25.62-.02-3.47-.03-6.46,.33-6.55,4.81-.1,4.69,2.88,5.29,6.64,5.27,19.66-.06,39.32-.06,58.98,0,3.77,.01,6.72-.65,6.6-5.32-.12-4.49-3.15-4.79-6.6-4.76-8.45,.07-16.91,.02-25.96,.02v-135c-9.09,0-17.57,.08-26.05-.04-3.69-.05-6.39,.91-6.33,5.11,.06,4.21,2.9,5.05,6.51,4.99,6.1-.11,12.21-.03,18.38-.03v124.97Zm-433.06,0c-.28-1.04-.52-1.51-.52-1.98-.03-16.16-.06-32.31-.02-48.47,0-1.1,.19-2.51,.86-3.26,7.58-8.38,14.75-17.25,23.1-24.8,7.95-7.18,12.67-5.88,19.52,2.6,1.09,1.34,3.37,1.72,5.11,2.54,.59-2.11,2.1-4.45,1.63-6.28-2.79-10.75-15.71-16.68-25.07-10.87-6.1,3.78-11.12,9.37-16.38,14.4-2.89,2.77-5.28,6.08-8.89,10.33v-24.21c-6.82,0-13.12,.07-19.41-.03-3.54-.05-5.36,1.6-5.36,5.04,0,3.47,1.91,5.09,5.4,5.03,3.94-.07,7.89-.02,11.84-.02v79.98c-5.2,0-10.02,.12-14.83-.04-3.64-.12-6.45,.72-6.51,4.93-.05,4.14,2.58,5.19,6.31,5.17,17.49-.08,34.98-.09,52.47,0,3.7,.02,6.38-.97,6.39-5.1,0-4.2-2.76-5.06-6.42-5.01-9.65,.13-19.3,.04-29.21,.04Z"/>
      <path d="M199.26,451.54H501v5.51c0,59.81-.29,119.62,.19,179.42,.13,16.36-13.5,28.48-28.31,28.45-82.13-.16-164.26-.07-246.39-.09-11.06,0-19.67-4.64-25.1-14.36-1.4-2.5-2.27-5.67-2.28-8.53-.13-62.64-.09-125.28-.08-187.92,0-.66,.13-1.32,.24-2.48Zm177.1,26.58c-5.14,.1-7.51,3.45-9.33,7.7-12.33,28.92-24.73,57.81-37.11,86.71-4.98,11.62-10.04,23.21-14.9,34.87-1.95,4.66-.53,9.03,3.39,11.33,3.96,2.33,7.79,1.79,10.88-1.49,1.43-1.51,2.31-3.63,3.15-5.59,11.63-27.05,23.21-54.12,34.81-81.18,5.63-13.15,11.34-26.27,16.85-39.47,2.69-6.44-1.29-12.82-7.74-12.88Zm-109.99,71.08c1.53-1.33,2.59-2.33,3.72-3.23,10.14-8.13,20.33-16.21,30.44-24.37,5.06-4.08,6.05-9.28,2.73-13.45-3.39-4.25-8.62-4.52-13.68-.5-13.96,11.09-27.91,22.2-41.79,33.4-6.47,5.22-6.45,10.9,.05,16.13,13.88,11.19,27.82,22.31,41.78,33.4,5,3.98,10.37,3.68,13.67-.58,3.27-4.22,2.25-9.37-2.81-13.45-8.56-6.9-17.19-13.73-25.78-20.6-2.69-2.15-5.36-4.33-8.35-6.75Zm166.67-.13c-2.01,1.64-3.4,2.79-4.8,3.91-9.75,7.81-19.53,15.59-29.25,23.43-5.37,4.33-6.4,9.5-2.9,13.77,3.4,4.15,8.6,4.34,13.72,.27,14.08-11.19,28.14-22.42,42.13-33.73,5.72-4.62,5.73-10.49,.09-15.19-5.11-4.27-10.37-8.37-15.57-12.53-9.24-7.38-18.42-14.84-27.78-22.07-4.49-3.47-9.72-2.71-12.84,1.37-2.93,3.84-2.19,8.85,1.88,12.45,1.12,.99,2.32,1.9,3.49,2.84,10.38,8.31,20.77,16.62,31.83,25.48Z"/>
      <path d="M199.05,433.31c0-16.83-.29-33.32,.11-49.79,.24-9.67,11.15-19.47,21.62-20.39,1.99-.18,3.99-.13,5.99-.13,81.94,0,163.89,.29,245.83-.25,16.89-.11,29.59,13.56,28.58,28.76-.9,13.43-.21,26.97-.24,40.46,0,.32-.15,.64-.33,1.34H199.05Zm230.68-35.14c-8.5,0-16.99-.05-25.49,.02-6.16,.05-10.05,3.43-10.16,8.64-.11,5.34,3.95,9.01,10.3,9.04,16.83,.06,33.65,.06,50.48,0,6.07-.02,10.07-3.57,10.18-8.68,.11-5.32-3.98-8.95-10.32-9-8.33-.06-16.66-.02-24.99-.01Zm-177.82,8.61c-.14-4.83-4.38-8.79-9.2-8.59-4.86,.21-8.76,4.46-8.49,9.28,.25,4.6,4.33,8.42,8.93,8.38,4.77-.05,8.9-4.32,8.76-9.06Zm71.02,.06c-.1-4.86-4.26-8.8-9.13-8.65-4.81,.15-8.83,4.47-8.58,9.22,.24,4.56,4.36,8.46,8.91,8.43,4.82-.03,8.89-4.21,8.8-9.01Zm-35.59,.15c-.01-4.92-4.01-8.87-8.9-8.8-4.91,.08-8.76,4.13-8.62,9.07,.13,4.68,3.99,8.52,8.65,8.59,4.81,.07,8.89-4,8.88-8.86Z"/>
      <path d="M1117.45,460c-3.45,0-6.44,.04-9.43-.01-3.12-.05-4.52-1.98-4.56-4.83-.05-3.05,1.31-5.15,4.73-5.15,10-.01,19.99-.02,29.99,0,3.37,0,4.78,2.01,4.74,5.13-.05,3.22-1.77,4.87-5.04,4.86-4.13-.01-8.25,0-12.64,0v58.66c16.28-19.79,31.89-38.76,48.26-58.66-3.22,0-5.31-.01-7.39,0-3.56,.03-5.2-1.81-5.1-5.28,.1-3.29,1.89-4.76,5.13-4.74,6.66,.03,13.33,.05,19.99,0,3.23-.03,5.08,1.37,5.2,4.66,.12,3.39-1.35,5.3-4.98,5.43-1.2,.04-2.78,.48-3.48,1.32-12.52,15.12-24.93,30.33-37.72,45.95,17.95,9.62,24.01,26.79,29.71,44.14,2.54,7.72,4.8,15.54,7.25,23.51,3.06,0,5.88,.01,8.7,0,3.37-.02,4.92,1.91,4.9,5-.02,3.07-1.59,5.01-4.94,5.01-4.48,0-8.97,0-13.19,0-4.24-13.35-7.91-26.5-12.66-39.25-2.69-7.22-6.49-14.27-11.05-20.47-3.4-4.62-8.81-7.75-13.69-11.85-5.3,6.5-9.86,11.98-14.27,17.58-.64,.81-.88,2.14-.88,3.24-.06,13.32-.04,26.64-.04,40.75,4.26,0,8.34,.07,12.42-.02,3.43-.08,5.48,1.33,5.52,4.88,.04,3.46-1.78,5.17-5.28,5.16-9.66-.03-19.33-.03-28.99,0-3.59,.01-5.25-1.93-5.17-5.27,.07-3.16,1.82-4.85,5.13-4.77,2.82,.07,5.65,.01,8.85,.01v-115Z"/>
      <path d="M832.57,575.01c3.76,0,6.57,.02,9.38,0,3.3-.03,4.97,1.68,4.99,4.88,.02,3.32-.98,6.04-4.95,6.1-5.31,.08-10.62,.02-16.56,.02v-17.46c-.33-.09-.66-.19-.99-.28-1.68,2.34-3.28,4.74-5.04,7.01-14.36,18.47-36.5,18.31-50.64-.33-16.07-21.2-16.06-57.59,.03-78.84,14.05-18.56,35.68-18.89,50.27-.71,1.86,2.31,3.5,4.8,5.83,8v-53.39c-2.85,0-5.79,.01-8.73,0-3.66-.02-5.01-2.31-4.97-5.52,.04-2.99,1.82-4.49,4.84-4.48,5.32,.01,10.64,0,16.54,0v135Zm-7.2-35.4c0-17.76-3.86-29.26-11.33-37.87-11.42-13.16-27.99-12.99-39.17,.4-14.77,17.7-14.9,48.48-.29,66.33,11.65,14.23,28.95,14.07,40.4-.39,7.56-9.55,10.45-20.6,10.4-28.47Z"/>
      <path d="M939.1,538.01h-71.99c1.36,12.74,5.08,23.89,14.24,32.55,8.92,8.44,19.57,10.08,31.12,7,7.67-2.04,14.54-5.59,20.31-11.22,1.1-1.07,3.04-1.28,4.6-1.89,.64,1.79,2.14,3.83,1.72,5.31-.68,2.4-2.27,4.82-4.1,6.58-21.02,20.25-51.62,16.15-66.45-8.81-12.98-21.83-11.45-52.68,3.55-71.56,15.19-19.13,40.89-18.85,55.47,.72,9.03,12.11,11.91,26,11.55,41.32Zm-7.29-10.19c-1.74-20.49-15.99-35.98-32.61-35.78-16.37,.2-30.75,16.39-31.63,35.78h64.23Z"/>
      <path d="M1559.11,538.01h-72.07c2.01,15.65,6.61,29.55,20.97,37.23,14.67,7.85,28.37,2.99,41.12-5.77,1.22-.84,2.12-2.2,3.4-2.92,1.54-.87,3.32-1.33,4.99-1.96,.54,1.97,1.4,3.93,1.5,5.93,.06,1.13-.98,2.43-1.77,3.46-13.61,17.77-44.51,20.06-60.3,4.41-9.72-9.63-14.92-21.56-16.52-34.99-2.06-17.27,.51-33.54,11.76-47.59,15.11-18.88,40.6-18.62,55.17,.65,9.15,12.1,12.02,26.03,11.74,41.55Zm-7.23-10.2c-2.57-22.05-17.14-36.96-34.4-35.72-15.67,1.13-30.24,18.63-29.68,35.72h64.08Z"/>
      <path d="M1660.11,538.05h-72.01c1.21,11.67,4.5,21.97,12.18,30.43,9.1,10.03,20.45,12.47,33.23,9.07,7.67-2.04,14.53-5.61,20.29-11.24,1.09-1.06,3.04-1.23,4.6-1.81,.62,1.8,2.05,3.79,1.66,5.34-.56,2.26-2.08,4.53-3.78,6.21-20.38,20.27-51.28,16.63-66.3-7.71-13.46-21.82-12.11-53.29,3.11-72.42,15.2-19.1,40.9-18.77,55.48,.81,8.95,12.01,11.78,25.82,11.52,41.31Zm-7.32-10.31c-1.65-20.31-15.95-35.88-32.57-35.7-16.37,.18-30.61,16.18-31.68,35.7h64.24Z"/>
      <path d="M1277.51,575.01c3.6,0,6.72-.57,9.47,.2,1.87,.52,4.15,2.69,4.59,4.53,.68,2.81-1.03,5.2-4.44,5.24-5.45,.07-10.9,.02-16.81,.02v-13.4c-2.07,1.94-3.34,3.1-4.57,4.3-5.67,5.56-12.06,10-19.84,12.01-19.35,4.99-34.62-6.65-35.78-27.17-1.19-21.02,13.41-37.32,34.41-37.55,8.38-.09,16.78,1.46,25.31,2.28,0-5.88,.76-12.28-.17-18.42-1.61-10.67-12.93-17.18-25.13-14.51-6.6,1.44-12.92,4.19-19.33,6.46-2.31,.82-5.04,1.92-5.77-1.18-.5-2.15,.15-6.17,1.57-6.91,10.35-5.4,21.13-10.23,33.23-8.48,12.58,1.82,22.19,12.21,22.78,25.4,.7,15.62,.37,31.29,.46,46.93,.04,6.48,0,12.97,0,20.25Zm-7.28-25.92c0-3.21-.24-5.09,.05-6.87,.76-4.66-1.4-6.8-5.78-7.23-6.44-.64-12.9-1.9-19.32-1.75-10.13,.24-18.87,4.09-24.5,13.08-8.12,12.97-1.53,30.25,12.45,32.36,9.84,1.49,18.43-1.91,25.76-8.37,6.76-5.96,14.19-11.74,11.35-21.21Z"/>
      <path d="M1317.25,495.02c9.69,26.58,19.05,52.25,28.91,79.33,9.77-27.19,19-52.89,28.5-79.32-3.58,0-6.36-.03-9.13,0-3.31,.05-5.02-1.73-5.07-4.86-.05-3.35,1.65-5.22,5.25-5.18,6.16,.07,12.33,.04,18.49,.02,2.95,0,4.83,1.23,4.97,4.33,.14,2.92-.54,5.18-4.09,5.74-1.28,.2-3.04,1.38-3.46,2.52-14.59,40.16-29.04,80.38-43.49,120.59-.16,.43-.02,.97-.02,1.82,3.25,0,6.4,.06,9.54-.02,3.4-.08,5.44,1.23,5.46,4.88,.02,3.52-1.71,5.15-5.23,5.14-13.33-.03-26.65-.02-39.98,0-3.24,0-4.97-1.5-5.03-4.81-.07-3.52,1.62-5.21,5.15-5.19,7.15,.04,14.3,.01,21.66,.01,4.02-11.11,8.04-22.01,11.85-32.99,.48-1.39,.15-3.29-.37-4.75-10.11-27.99-20.28-55.97-30.6-83.88-.53-1.43-2.77-2.14-3.91-3.46-1.45-1.67-3.35-3.48-3.7-5.47-.5-2.88,1.53-4.48,4.62-4.46,6.33,.05,12.66,.03,18.99,0,3.38-.01,4.87,1.89,4.87,5,0,3.12-1.54,5.02-4.89,5.01-2.81,0-5.63,0-9.3,0Z"/>
      <path d="M627.85,462.86c.16-3.68-.08-6.42,.53-8.95,.35-1.46,2.1-2.58,3.21-3.85,1.13,1.23,3.22,2.44,3.25,3.7,.26,10.82,.26,21.65,0,32.47-.03,1.26-2.1,2.48-3.22,3.72-1.08-1.12-2.63-2.06-3.12-3.39-.72-1.98-.52-4.28-.98-6.38-2.47-11.18-13.09-21.07-25.2-22.77-12.06-1.7-21.69,3.13-28.2,13.16-7.18,11.08-11.5,23.33-11.11,36.73,.34,11.78,.47,23.65,2.16,35.27,1.56,10.73,7.44,19.88,15.29,27.49,12.52,12.13,29.08,12.02,41.29-.47,3.46-3.54,6.05-7.93,9.33-11.68,1.11-1.26,3.12-1.74,4.71-2.58,.66,1.9,2.41,4.28,1.81,5.61-5.99,13.31-15.06,23.73-29.86,27.16-13.68,3.17-25.24-1.99-33.8-12.38-11.95-14.5-18.9-31.08-18.29-50.48,.49-15.62-1.22-31.53,5.45-46.25,3.38-7.47,7.34-15.14,12.81-21.11,13.16-14.36,32.74-14.61,47.38-1.7,2.09,1.84,3.92,3.97,6.55,6.65Z"/>
      <path d="M735.51,536.26c-.1,15.34-4.33,29.22-14.66,40.87-14.11,15.91-35.61,15.97-49.84,.19-19.88-22.06-19.87-61.65,.02-83.67,14.25-15.77,35.74-15.68,49.84,.24,10.71,12.1,14.74,26.54,14.64,42.37Zm-7.25-.47c.07-14.33-4.38-26.42-12.93-35.13-11.41-11.62-27.65-11.58-39.01,.1-17.58,18.08-17.26,52.42,.65,70.09,10.96,10.81,26.58,10.98,37.55,.22,9.85-9.66,13.71-21.75,13.74-35.28Z"/>
      <path d="M1424.03,575v-124.97c-6.17,0-12.27-.08-18.38,.03-3.61,.07-6.45-.78-6.51-4.99-.06-4.2,2.64-5.16,6.33-5.11,8.48,.12,16.97,.04,26.05,.04v135c9.05,0,17.5,.04,25.96-.02,3.45-.03,6.48,.27,6.6,4.76,.12,4.67-2.83,5.33-6.6,5.32-19.66-.06-39.32-.06-58.98,0-3.75,.01-6.74-.58-6.64-5.27,.09-4.48,3.07-4.84,6.55-4.81,8.45,.07,16.91,.02,25.62,.02Z"/>
      <path d="M990.97,575c9.91,0,19.56,.08,29.21-.04,3.67-.05,6.43,.81,6.42,5.01,0,4.13-2.69,5.12-6.39,5.1-17.49-.09-34.98-.09-52.47,0-3.73,.02-6.36-1.04-6.31-5.17,.05-4.21,2.87-5.05,6.51-4.93,4.81,.15,9.62,.04,14.83,.04v-79.98c-3.95,0-7.9-.06-11.84,.02-3.49,.06-5.4-1.56-5.4-5.03,0-3.44,1.82-5.09,5.36-5.04,6.29,.1,12.59,.03,19.41,.03v24.21c3.62-4.25,6-7.56,8.89-10.33,5.26-5.04,10.28-10.62,16.38-14.4,9.36-5.81,22.28,.12,25.07,10.87,.47,1.83-1.03,4.17-1.63,6.28-1.73-.82-4.02-1.2-5.11-2.54-6.85-8.48-11.57-9.78-19.52-2.6-8.35,7.55-15.51,16.41-23.1,24.8-.68,.75-.86,2.16-.86,3.26-.04,16.16-.02,32.31,.02,48.47,0,.47,.24,.94,.52,1.98Z"/>
    </g>
  </g>
</svg>