<?xml version="1.0" encoding="UTF-8"?>
<svg id="Layer_2" data-name="Layer 2" xmlns="http://www.w3.org/2000/svg" viewBox="0 0 1461.19 302.16">
  <g id="Layer_1-2" data-name="Layer 1">
    <g>
      <path d="M.31,88.79H302.05v5.51c0,59.81-.29,119.62,.19,179.42,.13,16.36-13.5,28.48-28.31,28.45-82.13-.16-164.26-.07-246.39-.09-11.06,0-19.67-4.64-25.1-14.36-1.4-2.5-2.27-5.67-2.28-8.53C.02,216.54,.06,153.9,.07,91.26c0-.66,.13-1.32,.24-2.48Zm177.1,26.58c-5.14,.1-7.51,3.45-9.33,7.7-12.33,28.92-24.73,57.81-37.11,86.71-4.98,11.62-10.04,23.21-14.9,34.87-1.95,4.66-.53,9.03,3.39,11.33,3.96,2.33,7.79,1.79,10.88-1.49,1.43-1.51,2.31-3.63,3.15-5.59,11.63-27.05,23.21-54.12,34.81-81.18,5.63-13.15,11.34-26.27,16.85-39.47,2.69-6.44-1.29-12.82-7.74-12.88Zm-109.99,71.08c1.53-1.33,2.59-2.33,3.72-3.23,10.14-8.13,20.33-16.21,30.44-24.37,5.06-4.08,6.05-9.28,2.73-13.45-3.39-4.25-8.62-4.52-13.68-.5-13.96,11.09-27.91,22.2-41.79,33.4-6.47,5.22-6.45,10.9,.05,16.13,13.88,11.19,27.82,22.31,41.78,33.4,5,3.98,10.37,3.68,13.67-.58,3.27-4.22,2.25-9.37-2.81-13.45-8.56-6.9-17.19-13.73-25.78-20.6-2.69-2.15-5.36-4.33-8.35-6.75Zm166.67-.13c-2.01,1.64-3.4,2.79-4.8,3.91-9.75,7.81-19.53,15.59-29.25,23.43-5.37,4.33-6.4,9.5-2.9,13.77,3.4,4.15,8.6,4.34,13.72,.27,14.08-11.19,28.14-22.42,42.13-33.73,5.72-4.62,5.73-10.49,.09-15.19-5.11-4.27-10.37-8.37-15.57-12.53-9.24-7.38-18.42-14.84-27.78-22.07-4.49-3.47-9.72-2.71-12.84,1.37-2.93,3.84-2.19,8.85,1.88,12.45,1.12,.99,2.32,1.9,3.49,2.84,10.38,8.31,20.77,16.62,31.83,25.48Z"/>
      <path d="M.1,70.56C.1,53.73-.19,37.24,.21,20.77,.45,11.1,11.36,1.3,21.83,.38c1.99-.18,3.99-.13,5.99-.13C109.77,.25,191.71,.55,273.65,0c16.89-.11,29.59,13.56,28.58,28.76-.9,13.43-.21,26.97-.24,40.46,0,.32-.15,.64-.33,1.34H.1ZM230.78,35.42c-8.5,0-16.99-.05-25.49,.02-6.16,.05-10.05,3.43-10.16,8.64-.11,5.34,3.95,9.01,10.3,9.04,16.83,.06,33.65,.06,50.48,0,6.07-.02,10.07-3.57,10.18-8.68,.11-5.32-3.98-8.95-10.32-9-8.33-.06-16.66-.02-24.99-.01ZM52.97,44.03c-.14-4.83-4.38-8.79-9.2-8.59-4.86,.21-8.76,4.46-8.49,9.28,.25,4.6,4.33,8.42,8.93,8.38,4.77-.05,8.9-4.32,8.76-9.06Zm71.02,.06c-.1-4.86-4.26-8.8-9.13-8.65-4.81,.15-8.83,4.47-8.58,9.22,.24,4.56,4.36,8.46,8.91,8.43,4.82-.03,8.89-4.21,8.8-9.01Zm-35.59,.15c-.01-4.92-4.01-8.87-8.9-8.8-4.91,.08-8.76,4.13-8.62,9.07,.13,4.68,3.99,8.52,8.65,8.59,4.81,.07,8.89-4,8.88-8.86Z"/>
      <path d="M918.5,97.25c-3.45,0-6.44,.04-9.43-.01-3.12-.05-4.52-1.98-4.56-4.83-.05-3.05,1.31-5.15,4.73-5.15,10-.01,19.99-.02,29.99,0,3.37,0,4.78,2.01,4.74,5.13-.05,3.22-1.77,4.87-5.04,4.86-4.13-.01-8.25,0-12.64,0v58.66c16.28-19.79,31.89-38.76,48.26-58.66-3.22,0-5.31-.01-7.39,0-3.56,.03-5.2-1.81-5.1-5.28,.1-3.29,1.89-4.76,5.13-4.74,6.66,.03,13.33,.05,19.99,0,3.23-.03,5.08,1.37,5.2,4.66,.12,3.39-1.35,5.3-4.98,5.43-1.2,.04-2.78,.48-3.48,1.32-12.52,15.12-24.93,30.33-37.72,45.95,17.95,9.62,24.01,26.79,29.71,44.14,2.54,7.72,4.8,15.54,7.25,23.51,3.06,0,5.88,.01,8.7,0,3.37-.02,4.92,1.91,4.9,5-.02,3.07-1.59,5.01-4.94,5.01-4.48,0-8.97,0-13.19,0-4.24-13.35-7.91-26.5-12.66-39.25-2.69-7.22-6.49-14.27-11.05-20.47-3.4-4.62-8.81-7.75-13.69-11.85-5.3,6.5-9.86,11.98-14.27,17.58-.64,.81-.88,2.14-.88,3.24-.06,13.32-.04,26.64-.04,40.75,4.26,0,8.34,.07,12.42-.02,3.43-.08,5.48,1.33,5.52,4.88,.04,3.46-1.78,5.17-5.28,5.16-9.66-.03-19.33-.03-28.99,0-3.59,.01-5.25-1.93-5.17-5.27,.07-3.16,1.82-4.85,5.13-4.77,2.82,.07,5.65,.01,8.85,.01V97.25Z"/>
      <path d="M633.62,212.25c3.76,0,6.57,.02,9.38,0,3.3-.03,4.97,1.68,4.99,4.88,.02,3.32-.98,6.04-4.95,6.1-5.31,.08-10.62,.02-16.56,.02v-17.46c-.33-.09-.66-.19-.99-.28-1.68,2.34-3.28,4.74-5.04,7.01-14.36,18.47-36.5,18.31-50.64-.33-16.07-21.2-16.06-57.59,.03-78.84,14.05-18.56,35.68-18.89,50.27-.71,1.86,2.31,3.5,4.8,5.83,8v-53.39c-2.85,0-5.79,.01-8.73,0-3.66-.02-5.01-2.31-4.97-5.52,.04-2.99,1.82-4.49,4.84-4.48,5.32,.01,10.64,0,16.54,0V212.25Zm-7.2-35.4c0-17.76-3.86-29.26-11.33-37.87-11.42-13.16-27.99-12.99-39.17,.4-14.77,17.7-14.9,48.48-.29,66.33,11.65,14.23,28.95,14.07,40.4-.39,7.56-9.55,10.45-20.6,10.4-28.47Z"/>
      <path d="M740.15,175.26h-71.99c1.36,12.74,5.08,23.89,14.24,32.55,8.92,8.44,19.57,10.08,31.12,7,7.67-2.04,14.54-5.59,20.31-11.22,1.1-1.07,3.04-1.28,4.6-1.89,.64,1.79,2.14,3.83,1.72,5.31-.68,2.4-2.27,4.82-4.1,6.58-21.02,20.25-51.62,16.15-66.45-8.81-12.98-21.83-11.45-52.68,3.55-71.56,15.19-19.13,40.89-18.85,55.47,.72,9.03,12.11,11.91,26,11.55,41.32Zm-7.29-10.19c-1.74-20.49-15.99-35.98-32.61-35.78-16.37,.2-30.75,16.39-31.63,35.78h64.23Z"/>
      <path d="M1360.16,175.26h-72.07c2.01,15.65,6.61,29.55,20.97,37.23,14.67,7.85,28.37,2.99,41.12-5.77,1.22-.84,2.12-2.2,3.4-2.92,1.54-.87,3.32-1.33,4.99-1.96,.54,1.97,1.4,3.93,1.5,5.93,.06,1.13-.98,2.43-1.77,3.46-13.61,17.77-44.51,20.06-60.3,4.41-9.72-9.63-14.92-21.56-16.52-34.99-2.06-17.27,.51-33.54,11.76-47.59,15.11-18.88,40.6-18.62,55.17,.65,9.15,12.1,12.02,26.03,11.74,41.55Zm-7.23-10.2c-2.57-22.05-17.14-36.96-34.4-35.72-15.67,1.13-30.24,18.63-29.68,35.72h64.08Z"/>
      <path d="M1461.16,175.3h-72.01c1.21,11.67,4.5,21.97,12.18,30.43,9.1,10.03,20.45,12.47,33.23,9.07,7.67-2.04,14.53-5.61,20.29-11.24,1.09-1.06,3.04-1.23,4.6-1.81,.62,1.8,2.05,3.79,1.66,5.34-.56,2.26-2.08,4.53-3.78,6.21-20.38,20.27-51.28,16.63-66.3-7.71-13.46-21.82-12.11-53.29,3.11-72.42,15.2-19.1,40.9-18.77,55.48,.81,8.95,12.01,11.78,25.82,11.52,41.31Zm-7.32-10.31c-1.65-20.31-15.95-35.88-32.57-35.7-16.37,.18-30.61,16.18-31.68,35.7h64.24Z"/>
      <path d="M1078.56,212.26c3.6,0,6.72-.57,9.47,.2,1.87,.52,4.15,2.69,4.59,4.53,.68,2.81-1.03,5.2-4.44,5.24-5.45,.07-10.9,.02-16.81,.02v-13.4c-2.07,1.94-3.34,3.1-4.57,4.3-5.67,5.56-12.06,10-19.84,12.01-19.35,4.99-34.62-6.65-35.78-27.17-1.19-21.02,13.41-37.32,34.41-37.55,8.38-.09,16.78,1.46,25.31,2.28,0-5.88,.76-12.28-.17-18.42-1.61-10.67-12.93-17.18-25.13-14.51-6.6,1.44-12.92,4.19-19.33,6.46-2.31,.82-5.04,1.92-5.77-1.18-.5-2.15,.15-6.17,1.57-6.91,10.35-5.4,21.13-10.23,33.23-8.48,12.58,1.82,22.19,12.21,22.78,25.4,.7,15.62,.37,31.29,.46,46.93,.04,6.48,0,12.97,0,20.25Zm-7.28-25.92c0-3.21-.24-5.09,.05-6.87,.76-4.66-1.4-6.8-5.78-7.23-6.44-.64-12.9-1.9-19.32-1.75-10.13,.24-18.87,4.09-24.5,13.08-8.12,12.97-1.53,30.25,12.45,32.36,9.84,1.49,18.43-1.91,25.76-8.37,6.76-5.96,14.19-11.74,11.35-21.21Z"/>
      <path d="M1118.3,132.26c9.69,26.58,19.05,52.25,28.91,79.33,9.77-27.19,19-52.89,28.5-79.32-3.58,0-6.36-.03-9.13,0-3.31,.05-5.02-1.73-5.07-4.86-.05-3.35,1.65-5.22,5.25-5.18,6.16,.07,12.33,.04,18.49,.02,2.95,0,4.83,1.23,4.97,4.33,.14,2.92-.54,5.18-4.09,5.74-1.28,.2-3.04,1.38-3.46,2.52-14.59,40.16-29.04,80.38-43.49,120.59-.16,.43-.02,.97-.02,1.82,3.25,0,6.4,.06,9.54-.02,3.4-.08,5.44,1.23,5.46,4.88,.02,3.52-1.71,5.15-5.23,5.14-13.33-.03-26.65-.02-39.98,0-3.24,0-4.97-1.5-5.03-4.81-.07-3.52,1.62-5.21,5.15-5.19,7.15,.04,14.3,.01,21.66,.01,4.02-11.11,8.04-22.01,11.85-32.99,.48-1.39,.15-3.29-.37-4.75-10.11-27.99-20.28-55.97-30.6-83.88-.53-1.43-2.77-2.14-3.91-3.46-1.45-1.67-3.35-3.48-3.7-5.47-.5-2.88,1.53-4.48,4.62-4.46,6.33,.05,12.66,.03,18.99,0,3.38-.01,4.87,1.89,4.87,5,0,3.12-1.54,5.02-4.89,5.01-2.81,0-5.63,0-9.3,0Z"/>
      <path d="M428.9,100.1c.16-3.68-.08-6.42,.53-8.95,.35-1.46,2.1-2.58,3.21-3.85,1.13,1.23,3.22,2.44,3.25,3.7,.26,10.82,.26,21.65,0,32.47-.03,1.26-2.1,2.48-3.22,3.72-1.08-1.12-2.63-2.06-3.12-3.39-.72-1.98-.52-4.28-.98-6.38-2.47-11.18-13.09-21.07-25.2-22.77-12.06-1.7-21.69,3.13-28.2,13.16-7.18,11.08-11.5,23.33-11.11,36.73,.34,11.78,.47,23.65,2.16,35.27,1.56,10.73,7.44,19.88,15.29,27.49,12.52,12.13,29.08,12.02,41.29-.47,3.46-3.54,6.05-7.93,9.33-11.68,1.11-1.26,3.12-1.74,4.71-2.58,.66,1.9,2.41,4.28,1.81,5.61-5.99,13.31-15.06,23.73-29.86,27.16-13.68,3.17-25.24-1.99-33.8-12.38-11.95-14.5-18.9-31.08-18.29-50.48,.49-15.62-1.22-31.53,5.45-46.25,3.38-7.47,7.34-15.14,12.81-21.11,13.16-14.36,32.74-14.61,47.38-1.7,2.09,1.84,3.92,3.97,6.55,6.65Z"/>
      <path d="M536.56,173.51c-.1,15.34-4.33,29.22-14.66,40.87-14.11,15.91-35.61,15.97-49.84,.19-19.88-22.06-19.87-61.65,.02-83.67,14.25-15.77,35.74-15.68,49.84,.24,10.71,12.1,14.74,26.54,14.64,42.37Zm-7.25-.47c.07-14.33-4.38-26.42-12.93-35.13-11.41-11.62-27.65-11.58-39.01,.1-17.58,18.08-17.26,52.42,.65,70.09,10.96,10.81,26.58,10.98,37.55,.22,9.85-9.66,13.71-21.75,13.74-35.28Z"/>
      <path d="M1225.08,212.25V87.28c-6.17,0-12.27-.08-18.38,.03-3.61,.07-6.45-.78-6.51-4.99-.06-4.2,2.64-5.16,6.33-5.11,8.48,.12,16.97,.04,26.05,.04V212.25c9.05,0,17.5,.04,25.96-.02,3.45-.03,6.48,.27,6.6,4.76,.12,4.67-2.83,5.33-6.6,5.32-19.66-.06-39.32-.06-58.98,0-3.75,.01-6.74-.58-6.64-5.27,.09-4.48,3.07-4.84,6.55-4.81,8.45,.07,16.91,.02,25.62,.02Z"/>
      <path d="M792.02,212.25c9.91,0,19.56,.08,29.21-.04,3.67-.05,6.43,.81,6.42,5.01,0,4.13-2.69,5.12-6.39,5.1-17.49-.09-34.98-.09-52.47,0-3.73,.02-6.36-1.04-6.31-5.17,.05-4.21,2.87-5.05,6.51-4.93,4.81,.15,9.62,.04,14.83,.04v-79.98c-3.95,0-7.9-.06-11.84,.02-3.49,.06-5.4-1.56-5.4-5.03,0-3.44,1.82-5.09,5.36-5.04,6.29,.1,12.59,.03,19.41,.03v24.21c3.62-4.25,6-7.56,8.89-10.33,5.26-5.04,10.28-10.62,16.38-14.4,9.36-5.81,22.28,.12,25.07,10.87,.47,1.83-1.03,4.17-1.63,6.28-1.73-.82-4.02-1.2-5.11-2.54-6.85-8.48-11.57-9.78-19.52-2.6-8.35,7.55-15.51,16.41-23.1,24.8-.68,.75-.86,2.16-.86,3.26-.04,16.16-.02,32.31,.02,48.47,0,.47,.24,.94,.52,1.98Z"/>
    </g>
  </g>
</svg>